<svg width="28" height="28" viewBox="0 0 28 28" fill="none" xmlns="http://www.w3.org/2000/svg">
<path d="M5.83501 23.7971H15.0213C15.6717 23.7971 16.1366 23.167 15.9358 22.538C15.513 21.2318 14.7574 20.6034 14.5692 20.3707C12.6917 18.5638 8.30104 18.1368 6.05084 20.7363C5.66035 21.1827 5.18666 21.9284 4.95417 22.4588C4.6728 23.087 5.14094 23.7971 5.83501 23.7971ZM5.53917 22.718C5.74901 22.24 6.18639 21.5534 6.53376 21.1563C7.52519 20.0112 8.85361 19.5496 10.3929 19.5496C12.6729 19.5496 14.6217 20.5585 15.3267 22.734C15.3935 22.945 15.2415 23.1571 15.0213 23.1571H5.83501C5.60636 23.1571 5.44548 22.9288 5.53917 22.718Z" fill="white"/>
<path d="M26.3213 21.4319C26.3888 18.3088 26.4886 11.9305 26.5615 8.74967C26.5815 7.53789 26.4978 7.16842 25.8698 5.99842C25.6201 5.56902 25.0087 4.41296 24.7773 3.97071C24.5144 3.48643 24.1583 2.28952 23.5952 1.90675C22.9577 1.46904 22.3494 2.28238 21.9861 2.76779C21.7239 3.11782 20.1765 4.83248 20.2165 4.78779C18.9868 6.1683 18.8349 6.67718 18.8411 8.22258C18.8587 10.2851 18.8707 11.8785 18.9093 13.7604C16.6793 11.3856 7.74843 1.69494 7.33439 1.14092C7.12869 0.867532 6.79945 0.435735 6.42812 0.524824C5.89786 0.441542 4.70559 0.604746 4.41273 1.00258C4.22185 1.25709 4.24707 1.62532 4.27523 1.91779C4.31455 2.33747 4.11296 17.2643 4.1646 17.4633C3.32991 18.0847 2.59971 18.8525 1.98898 19.7713C0.810226 21.5432 0.26106 23.344 0.15231 25.7909C0.109199 26.6639 0.797818 27.3926 1.67314 27.3982L18.989 27.4963C19.865 27.4963 20.557 26.7677 20.5252 25.8988C20.5073 25.3466 20.4419 24.7965 20.3498 24.2536H27.5098C27.6581 24.2536 27.7869 24.1518 27.8211 24.0074C27.9098 23.6328 27.774 23.2559 27.6448 23.0068C27.4934 22.7116 27.0063 22.1523 26.3213 21.4319ZM24.1953 19.2754C23.9685 16.3744 24.1418 11.7236 24.5944 8.43519C25.0381 8.51782 25.4806 8.62308 25.9213 8.75777C25.9203 8.81934 25.6958 20.7335 25.6948 20.7833C25.2402 20.319 24.7322 19.8101 24.1953 19.2754ZM21.8394 16.8587C21.6847 13.9784 21.8027 10.4375 22.0066 8.24594C22.6594 8.21936 23.3115 8.25172 23.9617 8.33641C23.5849 11.0863 23.3394 15.3811 23.5101 18.5924C22.813 17.8956 22.9061 17.9821 21.8394 16.8587ZM21.4669 4.34883C22.371 4.4831 23.5095 4.58434 24.4542 4.72547C25.5128 6.73803 25.8655 7.10843 25.916 8.09258C23.9053 7.5112 21.8125 7.39127 19.4815 7.96873C19.4875 6.41356 19.8343 6.17887 21.4669 4.34883ZM19.4847 8.62508C20.1086 8.4623 20.7338 8.35422 21.3592 8.29352C21.1763 10.3279 21.0668 13.4394 21.1668 16.1476C20.6321 15.584 20.0981 15.0192 19.5649 14.4537C19.5149 12.328 19.5017 10.6308 19.4847 8.62508ZM18.9906 26.8563L1.67689 26.7582C1.17319 26.7552 0.766224 26.3382 0.791476 25.8209C0.79343 25.777 0.798065 25.7369 0.800305 25.6935C0.848081 25.6937 0.862307 25.6938 1.51148 25.6974C1.68731 25.6974 1.83064 25.5553 1.83148 25.379C1.83231 25.2024 1.68981 25.0584 1.51314 25.0574L0.844706 25.0537C0.996633 23.3882 1.39825 22.0408 2.13077 20.7586L2.60189 21.0822C2.74701 21.182 2.94645 21.1456 3.04689 20.9997C3.14689 20.8538 3.10981 20.6547 2.96439 20.5547L2.4676 20.2135C3.24235 19.0248 4.22538 18.0601 5.51166 17.3595C5.7831 17.7045 5.82555 17.973 6.09731 17.973C6.34931 17.973 6.5073 17.6884 6.36189 17.4736L6.09044 17.073C7.33949 16.5137 8.45029 16.3262 9.61549 16.274L9.63731 16.9355C9.64314 17.1084 9.78523 17.2449 9.95731 17.2449C9.96064 17.2449 9.96439 17.2449 9.96773 17.2447C10.1444 17.2388 10.2831 17.0909 10.2773 16.9143L10.2557 16.2607C11.733 16.2789 13.1515 16.5671 14.4996 17.1634L14.3052 17.6786C14.2431 17.844 14.3265 18.0284 14.4919 18.0907C14.6532 18.1523 14.841 18.0723 14.9044 17.904L15.0779 17.4441C16.4896 18.1901 17.5772 19.2026 18.4619 20.7589L17.9398 21.0263C17.6415 21.1791 17.7513 21.6311 18.0861 21.6311C18.2162 21.6311 18.248 21.5759 18.7546 21.3279C19.4336 22.6971 19.7555 24.0434 19.8551 25.5096L19.2352 25.4695C19.0619 25.4572 18.9065 25.5915 18.8952 25.7682C18.8836 25.9445 19.0173 26.0967 19.1936 26.1082C19.2364 26.1108 19.9047 26.1516 19.8618 26.149C19.7671 26.5817 19.3955 26.8563 18.9906 26.8563ZM9.56814 15.6276V11.1682C10.8891 12.6072 12.3742 14.2545 14.444 16.439C12.9575 15.8413 11.2347 15.5508 9.56814 15.6276ZM20.2344 23.6136C20.0402 22.7384 19.7185 21.7989 19.3015 20.9726H20.5465C20.6969 20.9726 20.8269 20.868 20.859 20.7211C20.9006 20.5322 20.8631 20.3143 20.7498 20.0878C20.4444 19.4957 20.223 19.746 9.95314 8.47196C9.83639 8.34574 9.66374 8.01508 9.35481 8.01508C9.35314 8.01508 9.35106 8.01508 9.34898 8.01508C9.22023 8.01696 9.10148 8.08092 9.02231 8.19071L9.02356 8.19154C8.84945 8.43784 8.92814 8.73795 8.92814 8.88508V15.6732C8.22054 15.7419 8.51889 15.743 6.64564 16.0259C6.63512 -1.23508 6.67082 2.55501 6.61403 1.39732C6.61196 1.35492 6.61162 1.31005 6.61432 1.26389C6.69174 1.35115 6.77596 1.46342 6.82273 1.52529C6.95956 1.70824 6.72912 1.45155 9.30632 4.28342L8.49148 4.95425C8.25944 5.14549 8.39665 5.52133 8.69481 5.52133C8.76648 5.52133 8.83856 5.49738 8.89814 5.44842C8.94203 5.4122 9.7898 4.71239 9.73731 4.75571C10.578 5.67935 11.4212 6.60212 12.2644 7.52485L11.5806 8.08821C11.444 8.2005 11.4248 8.40217 11.5369 8.53863C11.6497 8.67515 11.851 8.69418 11.9873 8.58217L12.6962 7.99808C13.3303 8.69105 13.2369 8.60046 15.2339 10.7572L14.6698 11.222C14.4384 11.4121 14.5739 11.7888 14.8731 11.7888C15.0705 11.7888 15.1326 11.6433 15.6695 11.2273C16.5982 12.2287 17.4497 13.1417 18.2637 14.0091L17.7681 14.4174C17.5364 14.6081 17.6726 14.9845 17.9715 14.9845C18.1638 14.9845 18.2063 14.8588 18.7045 14.4752C19.5493 15.3734 20.3966 16.2682 21.2452 17.162L20.8477 17.4893C20.6157 17.6805 20.7529 18.0563 21.0511 18.0563C21.2402 18.0563 21.3006 17.9211 21.686 17.628C23.5604 19.5653 21.3865 17.3679 24.3222 20.3057L23.9369 20.6232C23.7055 20.8133 23.841 21.1901 24.1402 21.1901C24.3293 21.1901 24.3869 21.057 24.7756 20.7613C25.8282 21.8233 26.8834 22.9247 27.0761 23.2999C27.1327 23.4097 27.1723 23.5165 27.1927 23.6136H20.2344Z" fill="white"/>
<path d="M16.4805 24.9686H4.14178C3.96511 24.9686 3.82178 25.112 3.82178 25.2886C3.82178 25.4653 3.96511 25.6086 4.14178 25.6086H16.4805C16.6572 25.6086 16.8005 25.4653 16.8005 25.2886C16.8005 25.112 16.6572 24.9686 16.4805 24.9686Z" fill="white"/>
</svg>
