<svg width="102" height="102" viewBox="0 0 102 102" fill="none" xmlns="http://www.w3.org/2000/svg">
<circle cx="51" cy="51" r="50" fill="url(#paint0_linear_1_1840)" fill-opacity="0.8" stroke="#8932EB" stroke-width="1.5" stroke-dasharray="6 6"/>
<path d="M51 67.6667H36.4167C35.3116 67.6667 34.2518 67.2277 33.4704 66.4463C32.689 65.6649 32.25 64.6051 32.25 63.5V44.75C32.25 43.645 32.689 42.5852 33.4704 41.8038C34.2518 41.0224 35.3116 40.5834 36.4167 40.5834H38.5C39.6051 40.5834 40.6649 40.1444 41.4463 39.363C42.2277 38.5816 42.6667 37.5218 42.6667 36.4167C42.6667 35.8642 42.8862 35.3343 43.2769 34.9436C43.6676 34.5529 44.1975 34.3334 44.75 34.3334H57.25C57.8025 34.3334 58.3324 34.5529 58.7231 34.9436C59.1138 35.3343 59.3333 35.8642 59.3333 36.4167C59.3333 37.5218 59.7723 38.5816 60.5537 39.363C61.3351 40.1444 62.3949 40.5834 63.5 40.5834H65.5833C66.6884 40.5834 67.7482 41.0224 68.5296 41.8038C69.311 42.5852 69.75 43.645 69.75 44.75V52.0417M65.5833 71.8334V59.3334M65.5833 59.3334L71.8333 65.5834M65.5833 59.3334L59.3333 65.5834M51 59.3334C52.6576 59.3334 54.2473 58.6749 55.4194 57.5028C56.5915 56.3307 57.25 54.741 57.25 53.0834C57.25 51.4258 56.5915 49.8361 55.4194 48.664C54.2473 47.4919 52.6576 46.8334 51 46.8334C49.3424 46.8334 47.7527 47.4919 46.5806 48.664C45.4085 49.8361 44.75 51.4258 44.75 53.0834C44.75 54.741 45.4085 56.3307 46.5806 57.5028C47.7527 58.6749 49.3424 59.3334 51 59.3334Z" stroke="#8932EB" stroke-width="5" stroke-linecap="round" stroke-linejoin="round"/>
<defs>
<linearGradient id="paint0_linear_1_1840" x1="51" y1="1" x2="51" y2="101" gradientUnits="userSpaceOnUse">
<stop stop-color="#D4B4FE" stop-opacity="0.08"/>
<stop offset="1" stop-color="#8932EB" stop-opacity="0.4"/>
</linearGradient>
</defs>
</svg>
