<svg width="32" height="32" viewBox="0 0 32 32" fill="none" xmlns="http://www.w3.org/2000/svg">
<path d="M28.9304 3.51271C28.271 2.9427 27.5768 2.42975 26.7158 2.60063C25.7643 2.78277 25.1133 4.05274 24.3087 4.90648C24.2451 4.97362 23.1465 6.24924 22.3258 7.1976C21.7765 6.67758 21.0037 6.43813 20.2581 6.58604C19.0864 6.81822 18.2103 7.13444 13.717 7.83354C11.7685 8.14104 9.83056 8.55688 7.9566 8.95937C6.71715 9.22544 5.90548 10.4425 6.12441 11.688L6.02829 17.4424C3.14173 21.3183 2.64918 22.5604 2.12431 23.3023C1.73139 23.8694 2.00618 24.7006 2.14243 25.0315C2.73526 26.4735 4.78006 26.4577 5.80493 26.626L5.87269 26.637L5.86452 27.116C5.86452 28.3935 6.90181 29.4327 8.17702 29.4327H25.1158C26.391 29.4327 27.4283 28.3935 27.4283 27.116V23.3141C28.3736 22.6932 28.762 21.459 28.302 20.4035L26.9123 17.2223L28.9993 13.5694C29.7262 12.2988 28.8055 10.6051 27.3004 10.3806L26.2563 10.2266C26.2941 10.1829 28.9718 7.08212 28.9339 7.12604C29.4695 6.50391 30.4038 5.84194 29.9654 4.75313C29.7535 4.22854 29.3143 3.84646 28.9304 3.51271ZM19.8397 14.9394C19.5318 14.5479 18.9249 14.0485 18.7258 13.9269C18.774 13.2121 18.7983 12.8488 18.828 12.4268C19.8258 12.8836 20.6565 13.6215 21.3041 14.6274C20.8146 14.7306 20.3248 14.8345 19.8397 14.9394ZM21.868 14.323C21.5791 13.868 21.2563 13.4612 20.9 13.1043L25.1991 8.13396C25.3147 8.00063 25.2999 7.79854 25.1664 7.68271C25.032 7.56729 24.8306 7.58146 24.7149 7.71563L20.4252 12.6752C20.0301 12.3521 19.6013 12.0808 19.1385 11.8646C20.3715 10.438 23.2546 7.10201 24.6242 5.51716C25.8018 6.06872 26.7294 6.81654 27.5187 7.78542C20.7123 15.6669 23.8721 12.0043 21.868 14.323ZM21.9374 24.644C20.8654 26.5137 20.4802 27.3675 19.6972 27.7544C18.7736 28.2063 18.0498 27.9547 11.2391 26.8568C11.6666 26.8319 12.1576 26.6726 21.9374 24.644ZM2.73431 24.7881C2.53931 24.3144 2.50639 23.8748 2.64848 23.6698C3.33916 22.6933 3.11783 22.4806 7.17868 16.9549L8.78952 24.9652C8.95447 25.775 9.51231 26.4045 10.2414 26.6953C-1.51724 24.7933 17.203 27.8214 5.90327 25.9935C4.90981 25.8309 3.16691 25.8383 2.73431 24.7881ZM26.957 22.8615C26.5859 23.0532 27.8776 22.7383 11.4618 26.1831C10.528 26.3785 9.60833 25.7746 9.41723 24.8381L6.75931 11.6123C6.57723 10.6915 7.17452 9.78187 8.09098 9.58521C9.9566 9.18437 11.8856 8.77021 13.816 8.46604C19.3864 7.59861 20.0506 7.18271 20.7012 7.18271C21.1472 7.18271 21.5843 7.36232 21.9087 7.68016L18.2949 11.8619L18.296 11.8627C18.1852 11.9889 18.2404 11.7125 17.9645 15.5485C17.9319 15.7672 18.1269 15.9506 18.3399 15.9098C18.5309 15.8738 19.4466 15.6785 19.5454 15.6573C22.1173 15.1074 21.9871 15.1634 22.0856 15.0498L24.1989 12.6105C26.0953 16.9529 27.7344 20.7029 27.7156 20.6598C28.0708 21.4744 27.7374 22.4415 26.957 22.8615ZM27.2066 11.014C28.2911 11.175 28.9333 12.3959 28.4439 13.2519L26.5929 16.4911L24.6634 12.0744C24.7264 12.0012 25.8204 10.7312 25.7608 10.8004L27.2066 11.014Z" fill="white"/>
<path d="M12.3514 20.4855C12.3333 20.0598 12.3546 19.5085 11.9813 19.2248C11.7286 19.0327 11.3594 19.0352 11.0167 19.2315C10.7726 19.3719 10.5807 19.5773 10.3894 19.7927C10.2721 19.9252 10.2842 20.1273 10.4165 20.2448C10.549 20.3615 10.7513 20.3498 10.8682 20.2177C11.023 20.0432 11.1751 19.879 11.3357 19.7865C11.4555 19.7173 11.564 19.7123 11.594 19.734C11.6773 19.7977 11.6935 20.1106 11.7005 20.1989C9.73753 20.2645 9.67869 22.4852 10.9803 22.4852C11.3112 22.4852 11.5669 22.3344 11.8606 22.1457C12.0681 22.2514 12.3034 22.1101 12.3238 21.8911C12.3241 21.8876 12.3376 21.668 12.3365 21.6371C12.374 21.0933 12.3595 20.5278 12.3514 20.4855ZM11.0909 21.8315C10.9888 21.8561 10.8586 21.8548 10.8001 21.7769C10.5966 21.5083 10.8457 20.87 11.7253 20.8373C11.7267 21.0482 11.7167 21.264 11.7039 21.4817C11.3175 21.748 11.1544 21.8165 11.0909 21.8315Z" fill="white"/>
<path d="M13.6818 20.2219L14.9478 19.956C15.1208 19.9194 15.2316 19.7498 15.1951 19.5769C15.1589 19.404 14.9889 19.2931 14.8162 19.3294L13.5501 19.5952C13.3772 19.6319 13.2664 19.8015 13.3028 19.9744C13.3391 20.1472 13.5081 20.2576 13.6818 20.2219Z" fill="white"/>
<path d="M14.9575 20.5077L13.6419 20.7836C13.2662 20.8623 13.3257 21.4169 13.7071 21.4169C13.7709 21.4169 13.709 21.421 15.0888 21.1344C15.2617 21.0981 15.3725 20.9286 15.3363 20.7552C15.3 20.5823 15.1296 20.4719 14.9575 20.5077Z" fill="white"/>
<path d="M18.5239 19.6677C18.5045 19.4602 18.4424 19.2164 18.3374 18.9343C18.2768 18.771 18.0955 18.6868 17.9324 18.7439C17.768 18.801 17.6795 18.9793 17.7332 19.1448C17.7565 19.2164 17.8658 19.6603 17.8895 19.7606C17.8953 19.8548 17.8826 19.8918 17.8849 19.8918C17.6541 20.0831 17.5626 20.0568 17.5339 20.0481C17.4028 20.0098 17.2724 19.8852 17.1941 19.7239C17.117 19.5648 17.0807 19.3689 17.0859 19.1418C17.0899 18.9648 16.9499 18.8185 16.7732 18.8143C16.5962 18.8306 16.4499 18.9502 16.4459 19.1268C16.4266 19.9789 16.8572 20.5169 17.3549 20.6627C17.6384 20.7439 17.8916 20.6506 18.0697 20.5456L18.4309 22.121C18.4319 22.6308 18.0147 22.8659 17.6837 22.6073C17.5132 22.4748 17.4014 22.2168 17.4116 21.9802C17.4291 21.5661 16.7911 21.515 16.772 21.9527C16.753 22.3973 16.9564 22.8523 17.2907 23.1123C18.0297 23.6882 19.1106 23.1715 19.0699 22.0698C19.0691 22.0498 19.0666 22.0293 19.062 22.0098L18.5239 19.6677Z" fill="white"/>
<path d="M20.4294 18.7636L19.3519 18.9899C18.9772 19.0693 19.0358 19.6232 19.4173 19.6232C19.4804 19.6232 19.4448 19.622 20.5611 19.3903C20.734 19.3536 20.8448 19.184 20.8084 19.0111C20.7719 18.8378 20.6021 18.7282 20.4294 18.7636Z" fill="white"/>
<path d="M21.5973 17.6511L21.1676 16.4373C21.1087 16.2706 20.9262 16.184 20.7591 16.2423C20.5926 16.3015 20.5054 16.484 20.5643 16.6506L21.6868 19.8215C21.7781 20.0795 22.1337 20.1147 22.2681 19.8651C22.9784 19.9505 23.4803 19.242 23.0845 18.3665C22.7443 17.6177 22.0382 17.3898 21.5973 17.6511ZM22.277 19.2152C22.2328 19.1938 22.1865 19.1858 22.1405 19.1854L21.8558 18.3812C21.9312 18.2437 21.8644 18.2061 21.9539 18.189C22.0158 18.1756 22.1283 18.201 22.2366 18.2827C22.3426 18.3619 22.4343 18.4823 22.5014 18.6302C22.7061 19.083 22.4994 19.3215 22.277 19.2152Z" fill="white"/>
<path d="M25.2628 18.551C25.0178 18.4029 24.7001 18.1976 24.3788 17.9891C24.4275 17.7439 24.4725 17.4965 24.4863 17.2552C24.4963 17.0785 24.3613 16.9273 24.1849 16.9173C24.0111 16.9048 23.8574 17.0427 23.8472 17.2185C23.84 17.3454 23.8217 17.4778 23.7988 17.6139C23.6064 17.4903 23.4276 17.3769 23.2828 17.2894C23.1309 17.1994 22.9347 17.2465 22.8434 17.3981C22.7522 17.5494 22.8007 17.746 22.952 17.8377C23.1458 17.9547 23.3991 18.1171 23.6682 18.2911C23.6162 18.5509 23.5678 18.815 23.5509 19.084C23.5399 19.2602 23.6738 19.4123 23.8503 19.4231C24.0032 19.4422 24.1778 19.3137 24.1897 19.124C24.1991 18.9745 24.2203 18.8207 24.2469 18.666C24.9833 19.1418 24.9873 19.1448 25.0968 19.1448C25.4198 19.1448 25.5388 18.7185 25.2628 18.551Z" fill="white"/>
<path d="M17.8007 18.2423C17.9736 18.2057 18.0845 18.0361 18.048 17.8632C18.0117 17.6898 17.8415 17.5802 17.669 17.6157L16.4672 17.8682C16.0924 17.9476 16.151 18.5015 16.5326 18.5015C16.5951 18.5015 16.5343 18.5057 17.8007 18.2423Z" fill="white"/>
<path d="M22.8283 17.0185L24.0236 16.7677C24.1967 16.7315 24.3073 16.5615 24.2711 16.3885C24.2348 16.2152 24.0636 16.1052 23.8923 16.141L22.6971 16.3919C22.287 16.4777 22.4084 17.1057 22.8283 17.0185Z" fill="white"/>
<path d="M16.6385 10.1419C16.6031 9.96859 16.4323 9.85776 16.2613 9.89192L8.73625 11.4194C8.56312 11.4548 8.45125 11.6236 8.48646 11.7969C8.52072 11.9655 8.68425 12.0818 8.86375 12.0469L16.3888 10.5194C16.5619 10.484 16.6737 10.3153 16.6385 10.1419Z" fill="white"/>
<path d="M17.3018 12.5998C17.2666 12.4265 17.0978 12.3156 16.9245 12.3498L9.39926 13.8773C8.98971 13.9611 9.10445 14.5868 9.52676 14.5048L17.052 12.9773C17.2251 12.9419 17.337 12.7731 17.3018 12.5998Z" fill="white"/>
<path d="M14.9326 15.6414C14.8973 15.4681 14.7269 15.3577 14.5553 15.3914L9.90568 16.3352C9.73256 16.3706 9.62068 16.5394 9.65589 16.7127C9.69015 16.8812 9.85369 16.9975 10.0332 16.9627L14.6828 16.0189C14.8559 15.9835 14.9678 15.8148 14.9326 15.6414Z" fill="white"/>
</svg>
