<svg width="44" height="44" viewBox="0 0 44 44" fill="none" xmlns="http://www.w3.org/2000/svg">
<g filter="url(#filter0_d_1_1598)">
<rect x="2" y="1" width="40" height="40" rx="20" fill="white" shape-rendering="crispEdges"/>
<rect x="2.5" y="1.5" width="39" height="39" rx="19.5" stroke="#CBD5E1" shape-rendering="crispEdges"/>
<path d="M19.5002 25.1667V26C19.5002 26.663 19.7636 27.2989 20.2324 27.7678C20.7012 28.2366 21.3371 28.5 22.0002 28.5C22.6632 28.5 23.2991 28.2366 23.7679 27.7678C24.2368 27.2989 24.5002 26.663 24.5002 26V25.1667M20.3335 15.1667C20.3335 14.7246 20.5091 14.3007 20.8217 13.9882C21.1342 13.6756 21.5581 13.5 22.0002 13.5C22.4422 13.5 22.8661 13.6756 23.1787 13.9882C23.4912 14.3007 23.6668 14.7246 23.6668 15.1667C24.6238 15.6192 25.4397 16.3236 26.0269 17.2044C26.6141 18.0852 26.9505 19.1092 27.0002 20.1667V22.6667C27.0629 23.1848 27.2464 23.6809 27.5358 24.1151C27.8253 24.5493 28.2127 24.9095 28.6668 25.1667H15.3335C15.7876 24.9095 16.175 24.5493 16.4645 24.1151C16.754 23.6809 16.9375 23.1848 17.0002 22.6667V20.1667C17.0498 19.1092 17.3862 18.0852 17.9735 17.2044C18.5607 16.3236 19.3765 15.6192 20.3335 15.1667Z" stroke="#0F172A" stroke-width="1.5" stroke-linecap="round" stroke-linejoin="round"/>
</g>
<defs>
<filter id="filter0_d_1_1598" x="0" y="0" width="44" height="44" filterUnits="userSpaceOnUse" color-interpolation-filters="sRGB">
<feFlood flood-opacity="0" result="BackgroundImageFix"/>
<feColorMatrix in="SourceAlpha" type="matrix" values="0 0 0 0 0 0 0 0 0 0 0 0 0 0 0 0 0 0 127 0" result="hardAlpha"/>
<feOffset dy="1"/>
<feGaussianBlur stdDeviation="1"/>
<feComposite in2="hardAlpha" operator="out"/>
<feColorMatrix type="matrix" values="0 0 0 0 0.203922 0 0 0 0 0.25098 0 0 0 0 0.329412 0 0 0 0.08 0"/>
<feBlend mode="normal" in2="BackgroundImageFix" result="effect1_dropShadow_1_1598"/>
<feBlend mode="normal" in="SourceGraphic" in2="effect1_dropShadow_1_1598" result="shape"/>
</filter>
</defs>
</svg>
