<svg width="375" height="340" viewBox="0 0 375 340" fill="none" xmlns="http://www.w3.org/2000/svg">
<path d="M291.727 88.7573C289.997 88.9423 289.181 89.3071 287.89 90.472C287.496 89.5907 287.299 89.1509 286.906 88.2687C288.196 87.1037 289.013 86.739 290.742 86.5531C291.136 87.4353 291.333 87.8751 291.726 88.7573H291.727Z" fill="#FF4F5D"/>
<path d="M307.058 105.022C306.825 105.518 306.79 105.799 306.891 106.338C306.589 106.3 306.438 106.28 306.136 106.243C306.033 105.704 306.069 105.424 306.302 104.926C306.604 104.964 306.755 104.983 307.057 105.022H307.058Z" fill="#FF4F5D"/>
<path d="M322.921 84.8951C322.254 85.3855 322.005 85.7319 321.753 86.5208C321.38 86.252 321.193 86.1176 320.821 85.8488C321.073 85.06 321.321 84.7136 321.988 84.2231C322.361 84.491 322.548 84.6254 322.921 84.8951Z" fill="#FF4F5D"/>
<path d="M322.076 153.12C322.146 151.038 321.85 150.008 320.686 148.282C321.797 147.964 322.35 147.803 323.462 147.484C324.626 149.21 324.921 150.24 324.852 152.322C323.741 152.641 323.186 152.8 322.076 153.12Z" fill="#FF4F5D"/>
<path d="M333.51 160.036C333.837 159.668 333.938 159.438 333.988 158.949C334.237 159.059 334.362 159.114 334.611 159.224C334.561 159.713 334.46 159.943 334.133 160.31C333.884 160.2 333.76 160.146 333.51 160.036Z" fill="#FF4F5D"/>
<path d="M354.892 182.487C355.238 183.182 355.517 183.467 356.205 183.827C355.898 184.129 355.744 184.28 355.437 184.583C354.749 184.222 354.469 183.937 354.123 183.241C354.43 182.939 354.584 182.788 354.892 182.487Z" fill="#FF4F5D"/>
<path d="M370.813 202.372C371.017 202.032 371.063 201.834 371.029 201.44C371.244 201.489 371.35 201.514 371.564 201.564C371.598 201.958 371.552 202.157 371.348 202.496C371.135 202.446 371.027 202.422 370.813 202.372Z" fill="#FF4F5D"/>
<path d="M325.829 241.737C325.091 241.353 324.671 241.281 323.849 241.402C323.926 240.948 323.965 240.72 324.041 240.265C324.863 240.144 325.284 240.216 326.021 240.6C325.944 241.055 325.906 241.283 325.829 241.737Z" fill="#FF4F5D"/>
<path d="M287.636 238.775C287.914 239.065 288.096 239.163 288.492 239.234C288.386 239.43 288.333 239.528 288.229 239.725C287.833 239.654 287.65 239.555 287.372 239.266C287.478 239.07 287.53 238.972 287.636 238.775Z" fill="#FF4F5D"/>
<path d="M302.234 207.847C303.406 206.596 303.781 205.799 303.996 204.099C304.856 204.504 305.286 204.706 306.146 205.11C305.931 206.812 305.556 207.608 304.385 208.86C303.524 208.455 303.093 208.252 302.233 207.847H302.234Z" fill="#FF4F5D"/>
<path d="M318.575 174.303C317.31 173.745 316.603 173.672 315.25 173.963C315.328 173.198 315.368 172.817 315.447 172.053C316.798 171.763 317.505 171.836 318.77 172.395C318.692 173.158 318.653 173.54 318.575 174.303Z" fill="#FF4F5D"/>
<path d="M342.708 198.695C342.424 198.231 342.211 198.05 341.709 197.842C341.904 197.613 342.003 197.497 342.198 197.268C342.702 197.475 342.913 197.657 343.199 198.12C343.002 198.35 342.905 198.465 342.708 198.695Z" fill="#FF4F5D"/>
<path d="M340.633 211.465C338.894 211.554 338.058 211.873 336.702 212.965C336.358 212.061 336.185 211.61 335.842 210.706C337.198 209.615 338.034 209.295 339.773 209.208C340.116 210.11 340.289 210.562 340.633 211.465H340.633Z" fill="#FF4F5D"/>
<path d="M313.391 243.563C311.501 243.943 310.636 244.428 309.328 245.844C308.805 244.911 308.542 244.443 308.02 243.51C309.328 242.094 310.192 241.609 312.083 241.229C312.606 242.162 312.868 242.629 313.392 243.562L313.391 243.563Z" fill="#FF4F5D"/>
<path d="M302.287 263.684C301.866 264.211 301.743 264.537 301.71 265.21C301.36 265.078 301.185 265.011 300.835 264.88C300.866 264.205 300.989 263.88 301.412 263.353C301.761 263.486 301.937 263.551 302.287 263.685V263.684Z" fill="#FF4F5D"/>
<path d="M319.968 222.62C319.792 222.135 319.631 221.926 319.205 221.634C319.43 221.459 319.544 221.372 319.77 221.196C320.196 221.487 320.358 221.697 320.533 222.183C320.306 222.358 320.194 222.446 319.968 222.62Z" fill="#FF4F5D"/>
<path d="M289.723 222.153C290.172 221.761 290.331 221.499 290.465 220.918C290.747 221.089 290.889 221.174 291.173 221.344C291.039 221.925 290.881 222.187 290.433 222.579C290.149 222.409 290.007 222.322 289.724 222.152L289.723 222.153Z" fill="#FF4F5D"/>
<path d="M290.275 238.615C291.751 237.525 292.301 236.758 292.858 235.009C293.686 235.602 294.098 235.899 294.927 236.492C294.371 238.241 293.821 239.008 292.343 240.098C291.515 239.505 291.103 239.208 290.275 238.615Z" fill="#FF4F5D"/>
<path d="M266.658 231.73C265.755 232.486 265.432 232.998 265.144 234.141C264.591 233.792 264.314 233.619 263.761 233.271C264.051 232.129 264.372 231.615 265.276 230.86C265.829 231.208 266.106 231.381 266.659 231.729L266.658 231.73Z" fill="#FFCB00"/>
<path d="M73.1851 241.204C74.98 240.715 75.7815 240.19 76.9476 238.739C77.5136 239.603 77.7971 240.036 78.3622 240.9C77.1953 242.35 76.3946 242.875 74.5997 243.366C74.0337 242.502 73.7511 242.069 73.1851 241.204Z" fill="#FF4F5D"/>
<path d="M47.7345 264.31C47.6124 263.905 47.4885 263.726 47.1519 263.469C47.3446 263.336 47.4414 263.269 47.6342 263.135C47.9699 263.391 48.0947 263.57 48.2168 263.975C48.024 264.109 47.9272 264.176 47.7345 264.31Z" fill="#FF4F5D"/>
<path d="M32.8161 233.473C33.1859 234.366 33.5068 234.744 34.3293 235.25C33.922 235.599 33.7179 235.773 33.3097 236.12C32.4882 235.614 32.1655 235.236 31.7957 234.343C32.203 233.995 32.4079 233.821 32.8161 233.473Z" fill="#FF4F5D"/>
<path d="M5.96216 226.621C4.83707 226.238 4.22481 226.229 3.08838 226.581C3.0971 225.92 3.10233 225.591 3.11193 224.931C4.24836 224.579 4.85975 224.589 5.98571 224.972C5.97612 225.632 5.97176 225.962 5.96216 226.622V226.621Z" fill="#FF4F5D"/>
<path d="M43.759 240.979C43.2837 241.997 43.213 242.57 43.425 243.673C42.8066 243.596 42.4979 243.558 41.8786 243.481C41.6667 242.379 41.7382 241.806 42.2127 240.787C42.8319 240.864 43.1415 240.902 43.759 240.98V240.979Z" fill="#FF4F5D"/>
<path d="M12.9316 193.877C14.1509 192.66 14.5539 191.871 14.8269 190.17C15.6781 190.606 16.1028 190.824 16.9532 191.259C16.6802 192.96 16.2764 193.748 15.058 194.965C14.2067 194.53 13.782 194.311 12.9316 193.876V193.877Z" fill="#FF4F5D"/>
<path d="M53.012 302.952C53.3582 304.358 53.7507 304.989 54.8557 305.923C54.1737 306.346 53.8327 306.559 53.1506 306.983C52.0456 306.049 51.6531 305.416 51.3069 304.011C51.988 303.587 52.3299 303.375 53.012 302.952Z" fill="#FF4F5D"/>
<path d="M2.18128 116.761C1.47134 117.185 1.1905 117.505 0.863443 118.266C0.518066 117.962 0.346249 117.811 0 117.508C0.327934 116.748 0.607899 116.428 1.31784 116.005C1.66322 116.307 1.83591 116.459 2.18128 116.761Z" fill="#FF4F5D"/>
<path d="M170.841 142.241C171.878 140.991 172.187 140.214 172.294 138.592C173.132 138.925 173.55 139.092 174.389 139.426C174.281 141.047 173.973 141.825 172.935 143.076C172.096 142.742 171.677 142.576 170.841 142.241Z" fill="#FF4F5D"/>
<path d="M109.217 150.176C107.294 150.363 106.385 150.759 104.938 152.038C104.511 151.056 104.297 150.564 103.87 149.582C105.318 148.302 106.228 147.905 108.148 147.719C108.576 148.702 108.789 149.193 109.217 150.176Z" fill="#FF4F5D"/>
<path d="M36.5218 265.492C36.3622 263.797 36.0159 262.993 34.8926 261.715C35.7595 261.34 36.193 261.153 37.0608 260.779C38.1833 262.058 38.5312 262.862 38.69 264.557C37.8231 264.931 37.3896 265.118 36.5227 265.492H36.5218Z" fill="#FF4F5D"/>
<path d="M149.072 70.5203C147.734 69.9653 146.992 69.9069 145.584 70.2428C145.648 69.4418 145.68 69.0412 145.744 68.2393C147.152 67.9033 147.895 67.9627 149.233 68.5168C149.169 69.3179 149.136 69.7193 149.073 70.5203H149.072Z" fill="#FF4F5D"/>
<path d="M123.291 68.4907C123.621 66.728 123.505 65.8118 122.739 64.1896C123.726 64.063 124.219 63.9993 125.206 63.8728C125.973 65.495 126.09 66.4104 125.759 68.174C124.771 68.3014 124.278 68.3642 123.291 68.4907Z" fill="#FF4F5D"/>
<path d="M188.397 39.4535C188.727 37.6908 188.61 36.7745 187.844 35.1523C188.832 35.0258 189.325 34.9621 190.312 34.8356C191.078 36.4578 191.196 37.3732 190.865 39.1367C189.877 39.2641 189.384 39.327 188.397 39.4535Z" fill="#FF4F5D"/>
<path d="M93.7168 273.948C94.5567 273.785 94.9422 273.572 95.5257 272.948C95.755 273.363 95.871 273.571 96.1004 273.987C95.5152 274.611 95.1306 274.825 94.2916 274.987C94.0622 274.571 93.947 274.364 93.7177 273.948H93.7168Z" fill="#FF4F5D"/>
<path d="M164.512 168.325C162.885 168.309 162.087 168.559 160.76 169.502C160.49 168.64 160.354 168.21 160.085 167.346C161.412 166.404 162.21 166.155 163.838 166.17C164.108 167.032 164.243 167.463 164.513 168.324L164.512 168.325Z" fill="#FF4F5D"/>
<path d="M213.019 102.912C213.744 101.974 213.951 101.401 213.988 100.217C214.607 100.439 214.916 100.551 215.535 100.772C215.497 101.958 215.291 102.531 214.566 103.468C213.948 103.246 213.639 103.134 213.019 102.912Z" fill="#FF4F5D"/>
<path d="M374 299.066C373.4 298.963 373.091 299.009 372.544 299.278C372.496 298.944 372.473 298.777 372.423 298.442C372.969 298.174 373.279 298.129 373.88 298.23C373.928 298.565 373.952 298.733 374 299.067V299.066Z" fill="#FF4F5D"/>
<path d="M358.09 214.506C358.15 213.363 357.999 212.794 357.376 211.833C357.99 211.669 358.298 211.587 358.911 211.423C359.532 212.384 359.684 212.952 359.624 214.096C359.01 214.26 358.704 214.342 358.09 214.506V214.506Z" fill="#FF4F5D"/>
<path d="M257.231 127.143C256.804 127.082 256.584 127.12 256.203 127.321C256.162 127.085 256.142 126.967 256.101 126.73C256.482 126.529 256.702 126.492 257.13 126.552C257.171 126.789 257.191 126.907 257.232 127.143H257.231Z" fill="#FF4F5D"/>
<path d="M316.512 70.2917C314.815 70.4584 314.013 70.8092 312.737 71.9401C312.357 71.0736 312.169 70.6399 311.79 69.7725C313.065 68.6416 313.87 68.2917 315.566 68.1241C315.944 68.9915 316.133 69.4244 316.511 70.2917H316.512Z" fill="#FF4F5D"/>
<path d="M254.599 64.8745C253.409 66.4033 253.07 67.3397 253.004 69.276C251.994 68.9095 251.488 68.7271 250.478 68.3598C250.545 66.4234 250.883 65.4871 252.073 63.9583C253.083 64.3248 253.589 64.5071 254.599 64.8736V64.8745Z" fill="#FF4F5D"/>
<path d="M319.704 35.8374C318.515 37.3662 318.176 38.3026 318.109 40.2389C317.099 39.8724 316.593 39.69 315.583 39.3226C315.651 37.3863 315.989 36.45 317.179 34.9211C318.189 35.2876 318.695 35.47 319.704 35.8365V35.8374Z" fill="#FF4F5D"/>
<path d="M318.089 314.745C317.404 315.251 317.151 315.608 316.893 316.419C316.509 316.144 316.317 316.007 315.932 315.732C316.189 314.921 316.444 314.565 317.128 314.058C317.513 314.333 317.704 314.47 318.089 314.745Z" fill="#FF4F5D"/>
<path d="M235.496 123.221C236.358 123.519 236.827 123.529 237.699 123.264C237.689 123.77 237.684 124.023 237.674 124.529C236.802 124.795 236.333 124.785 235.47 124.487C235.481 123.981 235.486 123.728 235.495 123.221H235.496Z" fill="#FF4F5D"/>
<path d="M333.942 67.4226C333.893 68.6321 334.06 69.2298 334.728 70.2386C334.082 70.4201 333.759 70.5099 333.112 70.6906C332.444 69.6827 332.276 69.0832 332.325 67.8746C332.972 67.694 333.295 67.6032 333.941 67.4226H333.942Z" fill="#FF4F5D"/>
<path d="M316.016 98.5586C316.008 98.1816 315.944 97.9975 315.717 97.6973C315.915 97.6292 316.013 97.5952 316.211 97.5262C316.439 97.8264 316.502 98.0105 316.51 98.3866C316.312 98.4556 316.212 98.4896 316.015 98.5586H316.016Z" fill="#FF4F5D"/>
<path d="M271.412 153.399C270.251 155.094 269.951 156.106 270.003 158.16C268.91 157.836 268.364 157.674 267.271 157.35C267.22 155.296 267.52 154.283 268.682 152.59C269.774 152.913 270.321 153.075 271.412 153.399V153.399Z" fill="#FF4F5D"/>
<path d="M272.09 116.193C271.467 117.556 271.377 118.323 271.671 119.793C270.846 119.698 270.433 119.649 269.607 119.552C269.311 118.083 269.401 117.317 270.026 115.953C270.851 116.049 271.264 116.097 272.09 116.193Z" fill="#FF4F5D"/>
<path d="M248.028 129.127C247.875 130.124 247.959 130.636 248.419 131.533C247.868 131.622 247.591 131.668 247.039 131.757C246.579 130.86 246.496 130.348 246.648 129.352C247.2 129.263 247.476 129.217 248.028 129.127Z" fill="#FF4F5D"/>
<path d="M228.867 118.467C229.555 118.004 229.82 117.67 230.107 116.891C230.468 117.176 230.649 117.318 231.011 117.604C230.723 118.381 230.46 118.717 229.772 119.179C229.41 118.894 229.229 118.751 228.867 118.467Z" fill="#FF4F5D"/>
<path d="M96.5827 295.906C96.0733 295.164 95.7061 294.881 94.8584 294.582C95.1637 294.185 95.3145 293.987 95.6181 293.59C96.4658 293.892 96.833 294.173 97.3423 294.914C97.0371 295.31 96.8862 295.508 96.5827 295.906Z" fill="#FF4F5D"/>
<path d="M70.1046 317.37C68.5661 316.13 67.6172 315.769 65.6453 315.669C66.0351 314.643 66.2314 314.131 66.6212 313.106C68.5932 313.207 69.543 313.569 71.0815 314.807C70.6907 315.832 70.4954 316.345 70.1046 317.369V317.37Z" fill="#FF4F5D"/>
<path d="M34.577 339.276C34.0031 337.411 33.4266 336.589 31.8689 335.416C32.7541 334.794 33.1963 334.482 34.0825 333.86C35.641 335.033 36.2175 335.854 36.7914 337.72C35.9061 338.343 35.4631 338.654 34.577 339.276Z" fill="#FF4F5D"/>
<path d="M12.1405 72.0937C10.3648 70.9654 9.31728 70.6967 7.21973 70.8258C7.51103 69.6949 7.65581 69.1303 7.94711 67.9994C10.0464 67.8702 11.0921 68.1399 12.8679 69.2664C12.5766 70.3982 12.4318 70.9637 12.1405 72.0937Z" fill="#FF4F5D"/>
<path d="M25.3391 87.9336C27.1837 89.0148 28.2565 89.2513 30.3828 89.0427C30.129 90.2015 30.0008 90.7818 29.7461 91.9398C27.6198 92.1466 26.5461 91.9101 24.7024 90.8307C24.9579 89.671 25.0853 89.0924 25.3391 87.9336Z" fill="#FF4F5D"/>
<path d="M52.4677 167.313C51.8651 169.045 51.845 169.99 52.3735 171.745C51.3557 171.724 50.8481 171.713 49.8294 171.691C49.3026 169.935 49.3227 168.991 49.9245 167.258C50.9423 167.28 51.4499 167.291 52.4677 167.313Z" fill="#FF4F5D"/>
<path d="M12.1806 175.747C12.6114 177.073 13.0336 177.653 14.1595 178.472C13.5351 178.927 13.2228 179.154 12.5966 179.609C11.4698 178.79 11.0485 178.21 10.6177 176.884C11.2421 176.43 11.5553 176.202 12.1806 175.747Z" fill="#FFCB00"/>
<path d="M21.7543 252.432C22.1607 252.655 22.3953 252.699 22.8558 252.641C22.8079 252.894 22.7843 253.021 22.7346 253.274C22.2741 253.332 22.0395 253.288 21.6331 253.064C21.681 252.811 21.7054 252.685 21.7543 252.432Z" fill="#FF4F5D"/>
<path d="M20.1425 205.974C20.0815 207.265 20.2559 207.907 20.9641 208.989C20.2725 209.177 19.9254 209.272 19.2337 209.461C18.5256 208.379 18.3511 207.738 18.4122 206.446C19.1038 206.258 19.4492 206.162 20.1417 205.974H20.1425Z" fill="#FF4F5D"/>
<path d="M358.45 176.843C357.214 174.978 356.313 174.261 354.216 173.474C354.991 172.504 355.379 172.018 356.153 171.048C358.25 171.836 359.151 172.552 360.387 174.418C359.612 175.389 359.225 175.873 358.45 176.844V176.843Z" fill="#01B5D6"/>
<path d="M271.808 306.886C272.49 306.425 272.75 306.091 273.031 305.318C273.392 305.598 273.572 305.738 273.933 306.019C273.652 306.793 273.392 307.126 272.709 307.588C272.349 307.307 272.168 307.167 271.808 306.887V306.886Z" fill="#01B5D6"/>
<path d="M337.551 111.145C336.598 112.411 336.334 113.181 336.305 114.764C335.473 114.479 335.056 114.336 334.224 114.05C334.252 112.468 334.517 111.697 335.47 110.431C336.303 110.716 336.718 110.86 337.551 111.145Z" fill="#01B5D6"/>
<path d="M331.554 182.004C332.681 181.223 333.107 180.662 333.561 179.37C334.165 179.83 334.468 180.059 335.074 180.52C334.622 181.811 334.195 182.373 333.068 183.154C332.463 182.694 332.16 182.464 331.554 182.004Z" fill="#01B5D6"/>
<path d="M337.638 324.047C336.5 322.866 335.756 322.469 334.14 322.179C334.57 321.377 334.785 320.976 335.214 320.174C336.829 320.464 337.575 320.862 338.712 322.042C338.282 322.845 338.068 323.245 337.638 324.047Z" fill="#01B5D6"/>
<path d="M343.447 279.839C343.45 279.168 343.344 278.84 342.953 278.295C343.308 278.182 343.485 278.125 343.841 278.012C344.233 278.556 344.338 278.885 344.336 279.555C343.98 279.67 343.803 279.726 343.447 279.839Z" fill="#01B5D6"/>
<path d="M361.695 231.864C360.262 233.469 359.817 234.482 359.599 236.621C358.505 236.14 357.96 235.9 356.865 235.419C357.083 233.281 357.529 232.268 358.962 230.663C360.055 231.144 360.602 231.384 361.695 231.864Z" fill="#01B5D6"/>
<path d="M349.953 220.847C350.887 221.967 351.522 222.366 352.937 222.726C352.504 223.409 352.289 223.752 351.857 224.436C350.443 224.076 349.807 223.676 348.873 222.556C349.305 221.872 349.521 221.53 349.953 220.847H349.953Z" fill="#01B5D6"/>
<path d="M344.336 264.58C343.774 264.968 343.561 265.247 343.335 265.89C343.034 265.66 342.884 265.546 342.583 265.317C342.809 264.674 343.022 264.395 343.583 264.007C343.885 264.237 344.035 264.351 344.336 264.58Z" fill="#01B5D6"/>
<path d="M371.655 315.726C372.919 316.313 373.631 316.4 375 316.135C374.906 316.902 374.859 317.285 374.765 318.052C373.396 318.318 372.685 318.231 371.42 317.644C371.514 316.877 371.561 316.493 371.655 315.726Z" fill="#01B5D6"/>
<path d="M108.147 220.665C108.802 222.199 109.367 222.846 110.799 223.704C110.1 224.312 109.751 224.616 109.053 225.224C107.62 224.365 107.056 223.719 106.4 222.185C107.099 221.577 107.448 221.273 108.147 220.665H108.147Z" fill="#01B5D6"/>
<path d="M93.5567 254.427C94.4553 255.726 95.101 256.219 96.5923 256.744C96.0593 257.44 95.7932 257.787 95.261 258.483C93.7697 257.959 93.1239 257.465 92.2253 256.167C92.7575 255.471 93.0236 255.124 93.5567 254.428V254.427Z" fill="#01B5D6"/>
<path d="M30.4332 188.016C30.8883 190.074 31.438 191.009 33.0163 192.409C32.0058 193.001 31.501 193.298 30.4913 193.889C28.9129 192.49 28.3633 191.555 27.9082 189.497C28.9179 188.905 29.4236 188.608 30.4332 188.016Z" fill="#01B5D6"/>
<path d="M12.0309 196.504C11.1903 196.195 10.7294 196.178 9.86646 196.421C9.88635 195.925 9.8963 195.676 9.91536 195.181C10.7775 194.937 11.2376 194.955 12.079 195.263C12.0591 195.759 12.0491 196.008 12.0301 196.504H12.0309Z" fill="#01B5D6"/>
<path d="M9.42954 266.147C10.0869 264.439 10.1375 263.498 9.6658 261.731C10.6813 261.785 11.1886 261.812 12.2041 261.866C12.6758 263.634 12.6252 264.574 11.967 266.282C10.9524 266.228 10.4442 266.201 9.42871 266.147H9.42954Z" fill="#01B5D6"/>
<path d="M29.1192 143.797C27.8493 145.514 27.5019 146.556 27.4837 148.691C26.3579 148.317 25.7951 148.129 24.6702 147.753C24.6892 145.618 25.0366 144.578 26.3066 142.86C27.4306 143.235 27.9935 143.423 29.1192 143.797Z" fill="#01B5D6"/>
<path d="M29.0703 33.0371C29.135 34.705 29.4301 35.5103 30.4622 36.8231C29.5909 37.1426 29.1565 37.3015 28.2853 37.6202C27.2541 36.3083 26.9581 35.5021 26.8943 33.8342C27.7647 33.5164 28.1999 33.3566 29.0703 33.0371Z" fill="#01B5D6"/>
<path d="M94.176 4C94.2407 5.66786 94.5358 6.47324 95.5679 7.786C94.6966 8.1055 94.2623 8.26443 93.391 8.5831C92.3598 7.27116 92.0638 6.46496 92 4.7971C92.8704 4.47925 93.3056 4.3195 94.176 4Z" fill="#01B5D6"/>
<path d="M39.2748 51.4814C38.1607 52.9514 37.849 53.8478 37.8109 55.6903C36.8418 55.3551 36.3585 55.1871 35.3911 54.851C35.4292 53.0077 35.7409 52.1121 36.8551 50.6412C37.8233 50.9765 38.3074 51.1453 39.2748 51.4814Z" fill="#01B5D6"/>
<path d="M104.381 22.4441C103.266 23.9142 102.955 24.8106 102.917 26.6531C101.948 26.3179 101.464 26.1499 100.497 25.8138C100.535 23.9705 100.847 23.0749 101.961 21.604C102.929 21.9392 103.413 22.1081 104.381 22.4441Z" fill="#01B5D6"/>
<path d="M166.408 2.64539C166.015 2.89453 165.863 3.07746 165.691 3.51036C165.492 3.34647 165.393 3.2637 165.194 3.09981C165.364 2.66856 165.518 2.48398 165.91 2.23401C166.109 2.39873 166.208 2.48067 166.408 2.64539Z" fill="#01B5D6"/>
<path d="M108.457 81.9581C109.04 82.5086 109.413 82.6857 110.21 82.79C110.018 83.1923 109.923 83.3934 109.732 83.7957C108.936 83.6922 108.563 83.5143 107.978 82.9638C108.169 82.5615 108.265 82.3596 108.457 81.9581Z" fill="#01B5D6"/>
<path d="M187.941 0.561196C188.484 0.493323 188.738 0.373303 189.138 0C189.268 0.273976 189.332 0.411378 189.461 0.685354C189.061 1.05949 188.807 1.17868 188.264 1.24738C188.135 0.972574 188.071 0.836 187.941 0.561196Z" fill="#01B5D6"/>
<path d="M252.16 105.555C253.333 105.243 253.857 104.904 254.623 103.964C254.989 104.528 255.172 104.811 255.538 105.376C254.772 106.316 254.247 106.656 253.075 106.968C252.709 106.403 252.525 106.121 252.16 105.556V105.555Z" fill="#01B5D6"/>
<path d="M261.763 68.4662C262.038 68.0738 262.11 67.8388 262.102 67.3604C262.356 67.4382 262.483 67.4771 262.737 67.5549C262.744 68.0325 262.672 68.2675 262.398 68.6599C262.144 68.5812 262.017 68.5432 261.763 68.4662Z" fill="#01B5D6"/>
<path d="M302.337 197.045C301.175 197.138 300.621 197.367 299.735 198.123C299.487 197.527 299.362 197.229 299.114 196.632C300 195.876 300.555 195.647 301.716 195.553C301.964 196.15 302.088 196.449 302.336 197.045L302.337 197.045Z" fill="#01B5D6"/>
<path d="M278.303 241.126C279.606 241.268 280.267 241.132 281.406 240.484C281.554 241.195 281.628 241.551 281.775 242.262C280.636 242.911 279.976 243.048 278.672 242.905C278.525 242.194 278.452 241.839 278.303 241.127V241.126Z" fill="#01B5D6"/>
<path d="M368.861 266.12C370.818 266.501 371.836 266.378 373.645 265.539C373.778 266.636 373.845 267.184 373.978 268.282C372.17 269.12 371.151 269.244 369.194 268.862C369.06 267.765 368.993 267.217 368.861 266.12Z" fill="#01B5D6"/>
<path d="M321.679 104.023C321.259 103.933 321.041 103.956 320.649 104.129C320.625 103.893 320.613 103.774 320.589 103.538C320.98 103.365 321.199 103.343 321.618 103.432C321.642 103.668 321.654 103.787 321.679 104.023Z" fill="#01B5D6"/>
<path d="M339.691 297.653C339.15 298.477 339.017 298.967 339.064 299.951C338.535 299.807 338.271 299.736 337.743 299.593C337.695 298.608 337.828 298.119 338.369 297.293C338.897 297.437 339.162 297.509 339.691 297.653Z" fill="#01B5D6"/>
<path d="M220.643 131.248C221.415 129.377 221.495 128.339 221.02 126.371C222.142 126.458 222.702 126.5 223.824 126.588C224.298 128.556 224.219 129.594 223.446 131.465C222.325 131.378 221.764 131.335 220.643 131.248Z" fill="#01B5D6"/>
<path d="M51.6008 105.119C50.7702 105.23 50.3822 105.416 49.7746 105.994C49.5731 105.575 49.4728 105.365 49.2722 104.947C49.8799 104.37 50.2678 104.184 51.0984 104.072C51.299 104.491 51.4002 104.701 51.6008 105.119Z" fill="#01B5D6"/>
<path d="M6.61939 143.405C6.80923 143.904 6.98165 144.118 7.42929 144.411C7.19801 144.597 7.08196 144.69 6.85067 144.875C6.40469 144.583 6.23143 144.368 6.04077 143.869C6.27288 143.683 6.38811 143.59 6.61939 143.405Z" fill="#01B5D6"/>
<path d="M1.91989 181.187C3.16915 183.044 4.07521 183.755 6.17831 184.526C5.41068 185.502 5.02687 185.99 4.25841 186.966C2.15532 186.195 1.24926 185.485 0 183.627C0.766797 182.651 1.15144 182.163 1.91989 181.186V181.187Z" fill="#01B5D6"/>
<path d="M31.9179 242.937C33.9795 243.842 35.1326 243.957 37.3335 243.48C37.2092 244.722 37.147 245.342 37.0219 246.584C34.8209 247.061 33.6687 246.945 31.6062 246.041C31.7322 244.799 31.7944 244.179 31.9187 242.937H31.9179Z" fill="#01B5D6"/>
<path d="M70.4517 252.59C69.0416 252.358 68.3146 252.469 67.0372 253.108C66.917 252.325 66.8573 251.934 66.7388 251.151C68.017 250.511 68.7432 250.401 70.1549 250.632C70.2735 251.415 70.3332 251.807 70.4517 252.59Z" fill="#01B5D6"/>
<path d="M32.7981 314.36C33.0194 315.143 33.2523 315.492 33.8915 315.996C33.5151 316.247 33.3278 316.373 32.9506 316.623C32.3115 316.118 32.0793 315.77 31.8572 314.988C32.2335 314.737 32.4217 314.611 32.7981 314.361V314.36Z" fill="#01B5D6"/>
<path d="M136.01 200.578C136.01 200.578 137.44 199.639 136.176 198.273C136.176 198.273 135.516 197.624 130.316 197.926L128.784 199.237L128.854 199.657C128.728 199.592 128.839 199.746 129.88 199.737C130.843 199.729 133.718 199.545 136.01 200.577L136.01 200.578Z" fill="url(#paint0_linear_20_1250)"/>
<path d="M129.919 204.483C129.919 204.483 129.78 205.08 130.527 206.597C130.527 206.597 130.638 205.564 132.078 204.873C133.516 204.184 136.475 202.963 136.924 201.356C136.924 201.356 137.078 200.909 137.07 200.376C137.063 199.87 136.791 198.733 136.176 198.273C136.176 198.273 137.254 199.227 135.509 200.811C134.595 201.641 130.404 203.886 129.919 204.484V204.483Z" fill="url(#paint1_linear_20_1250)"/>
<path d="M134.368 193.768C134.368 193.768 135.799 192.829 134.535 191.463C134.535 191.463 133.874 190.814 128.675 191.117L127.364 191.818L127.212 192.848C127.086 192.782 127.197 192.936 128.238 192.928C129.2 192.92 132.076 192.736 134.368 193.768H134.368Z" fill="url(#paint2_linear_20_1250)"/>
<path d="M128.279 197.675C128.279 197.675 128.14 198.272 128.886 199.788C128.886 199.788 128.997 198.755 130.437 198.064C131.876 197.375 134.835 196.154 135.284 194.547C135.284 194.547 135.438 194.1 135.43 193.567C135.423 193.061 135.151 191.924 134.536 191.464C134.536 191.464 135.614 192.418 133.869 194.002C132.954 194.832 128.764 197.077 128.28 197.675H128.279Z" fill="url(#paint3_linear_20_1250)"/>
<path d="M126.623 190.769C126.623 190.769 126.484 191.366 127.231 192.883C127.231 192.883 127.342 191.85 128.781 191.159C130.22 190.47 133.179 189.249 133.627 187.641L132.984 186.168C132.831 186.446 132.586 186.757 132.213 187.097C131.299 187.926 127.108 190.171 126.623 190.769Z" fill="url(#paint4_linear_20_1250)"/>
<path d="M146.639 141.581C146.639 141.581 148.93 141.925 148.882 139.403C148.882 139.403 148.799 138.149 143.27 133.758L140.543 133.698L140.233 134.185C140.166 134.005 140.139 134.262 141.198 135.194C142.179 136.056 145.251 138.468 146.639 141.582V141.581Z" fill="url(#paint5_linear_20_1250)"/>
<path d="M136.969 140.028C136.969 140.028 136.29 140.506 135.68 142.713C135.68 142.713 136.722 141.768 138.799 142.371C140.873 142.974 144.962 144.414 146.863 143.194C146.863 143.194 147.421 142.883 147.893 142.337C148.341 141.819 149.089 140.424 148.882 139.403C148.882 139.403 149.113 141.341 145.923 141.365C144.252 141.378 137.997 139.861 136.969 140.028Z" fill="url(#paint6_linear_20_1250)"/>
<path d="M151.108 133.217C151.108 133.217 153.399 133.561 153.352 131.038C153.352 131.038 153.268 129.785 147.739 125.393L145.783 124.917L144.703 125.82C144.635 125.64 144.609 125.896 145.668 126.828C146.649 127.69 149.72 130.102 151.108 133.216V133.217Z" fill="url(#paint7_linear_20_1250)"/>
<path d="M141.438 131.663C141.438 131.663 140.759 132.141 140.15 134.348C140.15 134.348 141.193 133.403 143.269 134.006C145.344 134.609 149.432 136.049 151.333 134.83C151.333 134.83 151.891 134.517 152.363 133.971C152.811 133.453 153.558 132.058 153.352 131.038C153.352 131.038 153.583 132.976 150.393 133C148.722 133.013 142.466 131.496 141.439 131.662L141.438 131.663Z" fill="url(#paint8_linear_20_1250)"/>
<path d="M145.978 123.187C145.978 123.187 145.3 123.665 144.69 125.872C144.69 125.872 145.733 124.928 147.809 125.531C149.884 126.134 153.973 127.573 155.873 126.355L156.549 124.284C156.143 124.427 155.617 124.52 154.933 124.525C153.263 124.538 147.007 123.021 145.978 123.187Z" fill="url(#paint9_linear_20_1250)"/>
<path d="M344.643 135.997C344.643 135.997 346.635 136.263 346.559 134.076C346.559 134.076 346.468 132.99 341.613 129.257L339.246 129.243L338.985 129.67C338.924 129.514 338.904 129.737 339.836 130.53C340.698 131.265 343.395 133.314 344.642 135.997H344.643Z" fill="url(#paint10_linear_20_1250)"/>
<path d="M336.234 134.782C336.234 134.782 335.652 135.206 335.154 137.128C335.154 137.128 336.045 136.295 337.853 136.79C339.661 137.284 343.227 138.477 344.858 137.392C344.858 137.392 345.338 137.114 345.739 136.634C346.121 136.178 346.751 134.958 346.558 134.077C346.558 134.077 346.784 135.754 344.018 135.819C342.569 135.853 337.122 134.623 336.234 134.782L336.234 134.782Z" fill="url(#paint11_linear_20_1250)"/>
<path d="M348.404 128.68C348.404 128.68 350.396 128.947 350.32 126.76C350.32 126.76 350.23 125.674 345.374 121.941L343.671 121.555L342.746 122.353C342.685 122.198 342.666 122.421 343.597 123.214C344.46 123.948 347.157 125.998 348.403 128.68H348.404Z" fill="url(#paint12_linear_20_1250)"/>
<path d="M339.996 127.466C339.996 127.466 339.414 127.889 338.916 129.812C338.916 129.812 339.807 128.979 341.616 129.473C343.424 129.968 346.99 131.16 348.62 130.076C348.62 130.076 349.1 129.798 349.502 129.318C349.884 128.862 350.513 127.642 350.32 126.76C350.32 126.76 350.546 128.437 347.78 128.502C346.332 128.536 340.885 127.306 339.996 127.466Z" fill="url(#paint13_linear_20_1250)"/>
<path d="M343.818 120.052C343.818 120.052 343.236 120.476 342.737 122.398C342.737 122.398 343.628 121.565 345.437 122.06C347.245 122.554 350.811 123.746 352.442 122.662L353 120.857C352.65 120.986 352.195 121.075 351.602 121.089C350.153 121.123 344.706 119.893 343.817 120.051L343.818 120.052Z" fill="url(#paint14_linear_20_1250)"/>
<path d="M296.888 284.535C296.888 284.535 298.657 284.777 298.595 282.834C298.595 282.834 298.518 281.868 294.213 278.538L292.11 278.519L291.877 278.898C291.823 278.76 291.805 278.958 292.631 279.665C293.395 280.321 295.787 282.149 296.888 284.535V284.535Z" fill="#53BA00"/>
<path d="M289.419 283.434C289.419 283.434 288.9 283.808 288.452 285.516C288.452 285.516 289.246 284.778 290.852 285.222C292.458 285.666 295.624 286.735 297.075 285.776C297.075 285.776 297.503 285.53 297.862 285.104C298.202 284.7 298.765 283.618 298.595 282.833C298.595 282.833 298.792 284.324 296.334 284.375C295.046 284.401 290.209 283.294 289.419 283.433V283.434Z" fill="#65E200"/>
<path d="M300.25 278.043C300.25 278.043 302.019 278.285 301.958 276.341C301.958 276.341 301.88 275.376 297.575 272.046L296.062 271.699L295.239 272.406C295.185 272.268 295.167 272.465 295.993 273.173C296.758 273.828 299.149 275.657 300.25 278.043Z" fill="#53BA00"/>
<path d="M292.781 276.942C292.781 276.942 292.263 277.316 291.815 279.024C291.815 279.024 292.609 278.286 294.215 278.73C295.821 279.174 298.986 280.243 300.439 279.284C300.439 279.284 300.865 279.037 301.224 278.612C301.564 278.208 302.127 277.125 301.958 276.341C301.958 276.341 302.154 277.832 299.695 277.883C298.408 277.909 293.57 276.802 292.78 276.941L292.781 276.942Z" fill="#65E200"/>
<path d="M296.197 270.363C296.197 270.363 295.678 270.738 295.231 272.445C295.231 272.445 296.025 271.707 297.63 272.151C299.236 272.595 302.402 273.664 303.854 272.705L304.355 271.102C304.044 271.216 303.638 271.294 303.112 271.305C301.824 271.331 296.987 270.224 296.197 270.363Z" fill="#65E200"/>
<path d="M80.3585 199.227C80.3585 199.227 81.6794 197.242 79.3176 196.184C79.3176 196.184 78.1177 195.714 71.6239 198.944L70.3757 201.459L70.6929 201.96C70.496 201.944 70.7222 202.081 72.0502 201.501C73.2794 200.965 76.8616 199.158 80.3585 199.227Z" fill="#E32A3A"/>
<path d="M74.6864 207.558C74.6864 207.558 74.8327 208.398 76.6148 209.932C76.6148 209.932 76.1948 208.548 77.662 206.877C79.1292 205.208 82.2543 202.028 81.953 199.724C81.953 199.724 81.9071 199.067 81.6073 198.39C81.3226 197.745 80.3552 196.438 79.3175 196.184C79.3175 196.184 81.2166 196.817 79.8443 199.8C79.1245 201.361 74.9806 206.527 74.6864 207.558Z" fill="#FF4F5D"/>
<path d="M74.5504 191.403C74.5504 191.403 75.8713 189.419 73.5103 188.36C73.5103 188.36 72.3104 187.89 65.8166 191.12L64.5194 192.735L64.8856 194.136C64.6887 194.121 64.9149 194.257 66.2429 193.678C67.4729 193.142 71.0544 191.335 74.5504 191.403V191.403Z" fill="#E32A3A"/>
<path d="M68.8792 199.734C68.8792 199.734 69.0247 200.575 70.8068 202.109C70.8068 202.109 70.3868 200.724 71.8548 199.054C73.3221 197.383 76.4464 194.204 76.1458 191.9C76.1458 191.9 76.0999 191.244 75.8001 190.566C75.5154 189.921 74.548 188.614 73.5103 188.36C73.5103 188.36 75.4094 188.992 74.0363 191.976C73.3173 193.538 69.1734 198.704 68.8784 199.734H68.8792Z" fill="#FF4F5D"/>
<path d="M63 191.796C63 191.796 63.1463 192.636 64.9284 194.17C64.9284 194.17 64.5084 192.786 65.9756 191.116C67.4428 189.446 70.5679 186.265 70.2666 183.962L68.6412 182.426C68.5969 182.866 68.4529 183.397 68.1587 184.037C67.4389 185.598 63.2958 190.765 63 191.796Z" fill="#FF4F5D"/>
<path d="M288.562 128.953C288.562 128.953 287.11 129.765 288.242 131.177C288.242 131.177 288.839 131.851 293.902 131.914L295.477 130.748L295.439 130.336C295.557 130.408 295.46 130.25 294.449 130.188C293.515 130.13 290.714 130.111 288.562 128.953V128.953Z" fill="url(#paint15_linear_20_1250)"/>
<path d="M294.733 125.581C294.733 125.581 294.909 125.011 294.289 123.49C294.289 123.49 294.111 124.485 292.667 125.056C291.225 125.626 288.273 126.607 287.728 128.136C287.728 128.136 287.547 128.559 287.519 129.075C287.491 129.568 287.678 130.688 288.242 131.177C288.242 131.177 287.262 130.178 289.063 128.761C290.007 128.019 294.223 126.129 294.734 125.581H294.733Z" fill="url(#paint16_linear_20_1250)"/>
<path d="M289.689 135.668C289.689 135.668 288.236 136.48 289.369 137.892C289.369 137.892 289.965 138.567 295.029 138.628L296.349 138.039L296.567 137.05C296.684 137.122 296.587 136.966 295.577 136.902C294.642 136.844 291.842 136.826 289.689 135.668H289.689Z" fill="url(#paint17_linear_20_1250)"/>
<path d="M295.861 132.297C295.861 132.297 296.037 131.727 295.416 130.207C295.416 130.207 295.238 131.201 293.795 131.772C292.352 132.343 289.4 133.324 288.855 134.852C288.855 134.852 288.675 135.274 288.646 135.793C288.619 136.284 288.805 137.405 289.37 137.894C289.37 137.894 288.39 136.895 290.191 135.478C291.135 134.736 295.351 132.845 295.861 132.298L295.861 132.297Z" fill="url(#paint18_linear_20_1250)"/>
<path d="M296.995 139.107C296.995 139.107 297.17 138.538 296.55 137.016C296.55 137.016 296.372 138.011 294.929 138.582C293.486 139.152 290.534 140.134 289.989 141.662L290.513 143.135C290.681 142.875 290.939 142.591 291.324 142.287C292.267 141.545 296.485 139.654 296.996 139.107H296.995Z" fill="url(#paint19_linear_20_1250)"/>
<path d="M240.058 205.359C240.058 205.359 240.72 204.192 239.352 203.692C239.352 203.692 238.66 203.476 235.142 205.55L234.541 207.012L234.739 207.28C234.628 207.279 234.76 207.347 235.483 206.969C236.152 206.619 238.091 205.461 240.058 205.36L240.058 205.359Z" fill="url(#paint20_linear_20_1250)"/>
<path d="M237.204 210.263C237.204 210.263 237.319 210.729 238.381 211.519C238.381 211.519 238.09 210.759 238.847 209.762C239.605 208.766 241.233 206.856 240.972 205.575C240.972 205.575 240.92 205.208 240.725 204.839C240.539 204.488 239.944 203.793 239.352 203.692C239.352 203.692 240.443 203.972 239.791 205.701C239.45 206.607 237.328 209.673 237.203 210.263H237.204Z" fill="url(#paint21_linear_20_1250)"/>
<path d="M236.485 201.198C236.485 201.198 237.149 200.031 235.78 199.531C235.78 199.531 235.088 199.315 231.571 201.388L230.906 202.346L231.168 203.119C231.056 203.118 231.189 203.185 231.912 202.807C232.58 202.457 234.519 201.299 236.486 201.198L236.485 201.198Z" fill="url(#paint22_linear_20_1250)"/>
<path d="M233.632 206.102C233.632 206.102 233.747 206.568 234.808 207.358C234.808 207.358 234.518 206.598 235.275 205.601C236.033 204.605 237.661 202.695 237.4 201.413C237.4 201.413 237.349 201.047 237.153 200.678C236.967 200.327 236.372 199.631 235.78 199.531C235.78 199.531 236.871 199.81 236.219 201.54C235.877 202.446 233.755 205.512 233.631 206.102H233.632Z" fill="url(#paint23_linear_20_1250)"/>
<path d="M230.015 201.88C230.015 201.88 230.131 202.346 231.192 203.136C231.192 203.136 230.901 202.376 231.659 201.379C232.416 200.383 234.044 198.473 233.784 197.191L232.81 196.394C232.802 196.643 232.743 196.946 232.603 197.317C232.262 198.223 230.14 201.289 230.015 201.879V201.88Z" fill="url(#paint24_linear_20_1250)"/>
<defs>
<linearGradient id="paint0_linear_20_1250" x1="128.87" y1="199.949" x2="136.605" y2="198.684" gradientUnits="userSpaceOnUse">
<stop stop-color="#5C5894"/>
<stop offset="0.47" stop-color="#6862C1"/>
<stop offset="1" stop-color="#7E78E1"/>
</linearGradient>
<linearGradient id="paint1_linear_20_1250" x1="129.629" y1="204.19" x2="138.142" y2="200.179" gradientUnits="userSpaceOnUse">
<stop stop-color="#7E78E1"/>
<stop offset="0.09" stop-color="#7068DC"/>
<stop offset="0.18" stop-color="#6661B8"/>
<stop offset="0.26" stop-color="#6560B6"/>
<stop offset="0.29" stop-color="#635EAF"/>
<stop offset="0.3" stop-color="#625DA9"/>
<stop offset="0.31" stop-color="#6661B9"/>
<stop offset="0.32" stop-color="#6B65CA"/>
<stop offset="0.34" stop-color="#6F68D6"/>
<stop offset="0.36" stop-color="#716ADD"/>
<stop offset="0.43" stop-color="#726BDF"/>
<stop offset="0.49" stop-color="#716ADD"/>
<stop offset="0.51" stop-color="#6E67D6"/>
<stop offset="0.52" stop-color="#6A63CA"/>
<stop offset="0.53" stop-color="#6A63C8"/>
<stop offset="0.58" stop-color="#6B64C9"/>
<stop offset="0.61" stop-color="#726BCE"/>
<stop offset="0.62" stop-color="#7D77D6"/>
<stop offset="0.63" stop-color="#8E88E2"/>
<stop offset="0.64" stop-color="#948EE7"/>
<stop offset="0.69" stop-color="#928CE6"/>
<stop offset="0.71" stop-color="#8B85E4"/>
<stop offset="0.72" stop-color="#7E78E1"/>
<stop offset="0.9" stop-color="#645EB1"/>
<stop offset="1" stop-color="#5F5A9C"/>
</linearGradient>
<linearGradient id="paint2_linear_20_1250" x1="127.229" y1="193.142" x2="134.965" y2="191.876" gradientUnits="userSpaceOnUse">
<stop stop-color="#5C5894"/>
<stop offset="0.47" stop-color="#6862C1"/>
<stop offset="1" stop-color="#7E78E1"/>
</linearGradient>
<linearGradient id="paint3_linear_20_1250" x1="127.988" y1="197.382" x2="136.502" y2="193.371" gradientUnits="userSpaceOnUse">
<stop stop-color="#7E78E1"/>
<stop offset="0.09" stop-color="#7068DC"/>
<stop offset="0.18" stop-color="#6661B8"/>
<stop offset="0.26" stop-color="#6560B6"/>
<stop offset="0.29" stop-color="#635EAF"/>
<stop offset="0.3" stop-color="#625DA9"/>
<stop offset="0.31" stop-color="#6661B9"/>
<stop offset="0.32" stop-color="#6B65CA"/>
<stop offset="0.34" stop-color="#6F68D6"/>
<stop offset="0.36" stop-color="#716ADD"/>
<stop offset="0.43" stop-color="#726BDF"/>
<stop offset="0.49" stop-color="#716ADD"/>
<stop offset="0.51" stop-color="#6E67D6"/>
<stop offset="0.52" stop-color="#6A63CA"/>
<stop offset="0.53" stop-color="#6A63C8"/>
<stop offset="0.58" stop-color="#6B64C9"/>
<stop offset="0.61" stop-color="#726BCE"/>
<stop offset="0.62" stop-color="#7D77D6"/>
<stop offset="0.63" stop-color="#8E88E2"/>
<stop offset="0.64" stop-color="#948EE7"/>
<stop offset="0.69" stop-color="#928CE6"/>
<stop offset="0.71" stop-color="#8B85E4"/>
<stop offset="0.72" stop-color="#7E78E1"/>
<stop offset="0.9" stop-color="#645EB1"/>
<stop offset="1" stop-color="#5F5A9C"/>
</linearGradient>
<linearGradient id="paint4_linear_20_1250" x1="126.635" y1="191.164" x2="134.4" y2="187.505" gradientUnits="userSpaceOnUse">
<stop stop-color="#7E78E1"/>
<stop offset="0.09" stop-color="#7068DC"/>
<stop offset="0.18" stop-color="#6661B8"/>
<stop offset="0.26" stop-color="#6560B6"/>
<stop offset="0.29" stop-color="#635EAF"/>
<stop offset="0.3" stop-color="#625DA9"/>
<stop offset="0.31" stop-color="#6661B9"/>
<stop offset="0.32" stop-color="#6B65CA"/>
<stop offset="0.34" stop-color="#6F68D6"/>
<stop offset="0.36" stop-color="#716ADD"/>
<stop offset="0.43" stop-color="#726BDF"/>
<stop offset="0.49" stop-color="#716ADD"/>
<stop offset="0.51" stop-color="#6E67D6"/>
<stop offset="0.52" stop-color="#6A63CA"/>
<stop offset="0.53" stop-color="#6A63C8"/>
<stop offset="0.58" stop-color="#6B64C9"/>
<stop offset="0.61" stop-color="#726BCE"/>
<stop offset="0.62" stop-color="#7D77D6"/>
<stop offset="0.63" stop-color="#8E88E2"/>
<stop offset="0.64" stop-color="#948EE7"/>
<stop offset="0.69" stop-color="#928CE6"/>
<stop offset="0.71" stop-color="#8B85E4"/>
<stop offset="0.72" stop-color="#7E78E1"/>
<stop offset="0.9" stop-color="#645EB1"/>
<stop offset="1" stop-color="#5F5A9C"/>
</linearGradient>
<linearGradient id="paint5_linear_20_1250" x1="139.966" y1="134.506" x2="148.937" y2="140.195" gradientUnits="userSpaceOnUse">
<stop stop-color="#5C5894"/>
<stop offset="0.47" stop-color="#6862C1"/>
<stop offset="1" stop-color="#7E78E1"/>
</linearGradient>
<linearGradient id="paint6_linear_20_1250" x1="136.916" y1="139.478" x2="149.14" y2="143.084" gradientUnits="userSpaceOnUse">
<stop stop-color="#7E78E1"/>
<stop offset="0.09" stop-color="#7068DC"/>
<stop offset="0.18" stop-color="#6661B8"/>
<stop offset="0.26" stop-color="#6560B6"/>
<stop offset="0.29" stop-color="#635EAF"/>
<stop offset="0.3" stop-color="#625DA9"/>
<stop offset="0.31" stop-color="#6661B9"/>
<stop offset="0.32" stop-color="#6B65CA"/>
<stop offset="0.34" stop-color="#6F68D6"/>
<stop offset="0.36" stop-color="#716ADD"/>
<stop offset="0.43" stop-color="#726BDF"/>
<stop offset="0.49" stop-color="#716ADD"/>
<stop offset="0.51" stop-color="#6E67D6"/>
<stop offset="0.52" stop-color="#6A63CA"/>
<stop offset="0.53" stop-color="#6A63C8"/>
<stop offset="0.58" stop-color="#6B64C9"/>
<stop offset="0.61" stop-color="#726BCE"/>
<stop offset="0.62" stop-color="#7D77D6"/>
<stop offset="0.63" stop-color="#8E88E2"/>
<stop offset="0.64" stop-color="#948EE7"/>
<stop offset="0.69" stop-color="#928CE6"/>
<stop offset="0.71" stop-color="#8B85E4"/>
<stop offset="0.72" stop-color="#7E78E1"/>
<stop offset="0.9" stop-color="#645EB1"/>
<stop offset="1" stop-color="#5F5A9C"/>
</linearGradient>
<linearGradient id="paint7_linear_20_1250" x1="144.435" y1="126.142" x2="153.407" y2="131.831" gradientUnits="userSpaceOnUse">
<stop stop-color="#5C5894"/>
<stop offset="0.47" stop-color="#6862C1"/>
<stop offset="1" stop-color="#7E78E1"/>
</linearGradient>
<linearGradient id="paint8_linear_20_1250" x1="141.385" y1="131.113" x2="153.61" y2="134.72" gradientUnits="userSpaceOnUse">
<stop stop-color="#7E78E1"/>
<stop offset="0.09" stop-color="#7068DC"/>
<stop offset="0.18" stop-color="#6661B8"/>
<stop offset="0.26" stop-color="#6560B6"/>
<stop offset="0.29" stop-color="#635EAF"/>
<stop offset="0.3" stop-color="#625DA9"/>
<stop offset="0.31" stop-color="#6661B9"/>
<stop offset="0.32" stop-color="#6B65CA"/>
<stop offset="0.34" stop-color="#6F68D6"/>
<stop offset="0.36" stop-color="#716ADD"/>
<stop offset="0.43" stop-color="#726BDF"/>
<stop offset="0.49" stop-color="#716ADD"/>
<stop offset="0.51" stop-color="#6E67D6"/>
<stop offset="0.52" stop-color="#6A63CA"/>
<stop offset="0.53" stop-color="#6A63C8"/>
<stop offset="0.58" stop-color="#6B64C9"/>
<stop offset="0.61" stop-color="#726BCE"/>
<stop offset="0.62" stop-color="#7D77D6"/>
<stop offset="0.63" stop-color="#8E88E2"/>
<stop offset="0.64" stop-color="#948EE7"/>
<stop offset="0.69" stop-color="#928CE6"/>
<stop offset="0.71" stop-color="#8B85E4"/>
<stop offset="0.72" stop-color="#7E78E1"/>
<stop offset="0.9" stop-color="#645EB1"/>
<stop offset="1" stop-color="#5F5A9C"/>
</linearGradient>
<linearGradient id="paint9_linear_20_1250" x1="145.614" y1="123.606" x2="156.765" y2="126.895" gradientUnits="userSpaceOnUse">
<stop stop-color="#7E78E1"/>
<stop offset="0.09" stop-color="#7068DC"/>
<stop offset="0.18" stop-color="#6661B8"/>
<stop offset="0.26" stop-color="#6560B6"/>
<stop offset="0.29" stop-color="#635EAF"/>
<stop offset="0.3" stop-color="#625DA9"/>
<stop offset="0.31" stop-color="#6661B9"/>
<stop offset="0.32" stop-color="#6B65CA"/>
<stop offset="0.34" stop-color="#6F68D6"/>
<stop offset="0.36" stop-color="#716ADD"/>
<stop offset="0.43" stop-color="#726BDF"/>
<stop offset="0.49" stop-color="#716ADD"/>
<stop offset="0.51" stop-color="#6E67D6"/>
<stop offset="0.52" stop-color="#6A63CA"/>
<stop offset="0.53" stop-color="#6A63C8"/>
<stop offset="0.58" stop-color="#6B64C9"/>
<stop offset="0.61" stop-color="#726BCE"/>
<stop offset="0.62" stop-color="#7D77D6"/>
<stop offset="0.63" stop-color="#8E88E2"/>
<stop offset="0.64" stop-color="#948EE7"/>
<stop offset="0.69" stop-color="#928CE6"/>
<stop offset="0.71" stop-color="#8B85E4"/>
<stop offset="0.72" stop-color="#7E78E1"/>
<stop offset="0.9" stop-color="#645EB1"/>
<stop offset="1" stop-color="#5F5A9C"/>
</linearGradient>
<linearGradient id="paint10_linear_20_1250" x1="338.734" y1="129.94" x2="346.594" y2="134.751" gradientUnits="userSpaceOnUse">
<stop stop-color="#5C5894"/>
<stop offset="0.47" stop-color="#6862C1"/>
<stop offset="1" stop-color="#7E78E1"/>
</linearGradient>
<linearGradient id="paint11_linear_20_1250" x1="336.157" y1="134.295" x2="346.809" y2="137.254" gradientUnits="userSpaceOnUse">
<stop stop-color="#7E78E1"/>
<stop offset="0.09" stop-color="#7068DC"/>
<stop offset="0.18" stop-color="#6661B8"/>
<stop offset="0.26" stop-color="#6560B6"/>
<stop offset="0.29" stop-color="#635EAF"/>
<stop offset="0.3" stop-color="#625DA9"/>
<stop offset="0.31" stop-color="#6661B9"/>
<stop offset="0.32" stop-color="#6B65CA"/>
<stop offset="0.34" stop-color="#6F68D6"/>
<stop offset="0.36" stop-color="#716ADD"/>
<stop offset="0.43" stop-color="#726BDF"/>
<stop offset="0.49" stop-color="#716ADD"/>
<stop offset="0.51" stop-color="#6E67D6"/>
<stop offset="0.52" stop-color="#6A63CA"/>
<stop offset="0.53" stop-color="#6A63C8"/>
<stop offset="0.58" stop-color="#6B64C9"/>
<stop offset="0.61" stop-color="#726BCE"/>
<stop offset="0.62" stop-color="#7D77D6"/>
<stop offset="0.63" stop-color="#8E88E2"/>
<stop offset="0.64" stop-color="#948EE7"/>
<stop offset="0.69" stop-color="#928CE6"/>
<stop offset="0.71" stop-color="#8B85E4"/>
<stop offset="0.72" stop-color="#7E78E1"/>
<stop offset="0.9" stop-color="#645EB1"/>
<stop offset="1" stop-color="#5F5A9C"/>
</linearGradient>
<linearGradient id="paint12_linear_20_1250" x1="342.495" y1="122.624" x2="350.354" y2="127.434" gradientUnits="userSpaceOnUse">
<stop stop-color="#5C5894"/>
<stop offset="0.47" stop-color="#6862C1"/>
<stop offset="1" stop-color="#7E78E1"/>
</linearGradient>
<linearGradient id="paint13_linear_20_1250" x1="339.918" y1="126.979" x2="350.57" y2="129.938" gradientUnits="userSpaceOnUse">
<stop stop-color="#7E78E1"/>
<stop offset="0.09" stop-color="#7068DC"/>
<stop offset="0.18" stop-color="#6661B8"/>
<stop offset="0.26" stop-color="#6560B6"/>
<stop offset="0.29" stop-color="#635EAF"/>
<stop offset="0.3" stop-color="#625DA9"/>
<stop offset="0.31" stop-color="#6661B9"/>
<stop offset="0.32" stop-color="#6B65CA"/>
<stop offset="0.34" stop-color="#6F68D6"/>
<stop offset="0.36" stop-color="#716ADD"/>
<stop offset="0.43" stop-color="#726BDF"/>
<stop offset="0.49" stop-color="#716ADD"/>
<stop offset="0.51" stop-color="#6E67D6"/>
<stop offset="0.52" stop-color="#6A63CA"/>
<stop offset="0.53" stop-color="#6A63C8"/>
<stop offset="0.58" stop-color="#6B64C9"/>
<stop offset="0.61" stop-color="#726BCE"/>
<stop offset="0.62" stop-color="#7D77D6"/>
<stop offset="0.63" stop-color="#8E88E2"/>
<stop offset="0.64" stop-color="#948EE7"/>
<stop offset="0.69" stop-color="#928CE6"/>
<stop offset="0.71" stop-color="#8B85E4"/>
<stop offset="0.72" stop-color="#7E78E1"/>
<stop offset="0.9" stop-color="#645EB1"/>
<stop offset="1" stop-color="#5F5A9C"/>
</linearGradient>
<linearGradient id="paint14_linear_20_1250" x1="343.483" y1="120.408" x2="353.198" y2="123.108" gradientUnits="userSpaceOnUse">
<stop stop-color="#7E78E1"/>
<stop offset="0.09" stop-color="#7068DC"/>
<stop offset="0.18" stop-color="#6661B8"/>
<stop offset="0.26" stop-color="#6560B6"/>
<stop offset="0.29" stop-color="#635EAF"/>
<stop offset="0.3" stop-color="#625DA9"/>
<stop offset="0.31" stop-color="#6661B9"/>
<stop offset="0.32" stop-color="#6B65CA"/>
<stop offset="0.34" stop-color="#6F68D6"/>
<stop offset="0.36" stop-color="#716ADD"/>
<stop offset="0.43" stop-color="#726BDF"/>
<stop offset="0.49" stop-color="#716ADD"/>
<stop offset="0.51" stop-color="#6E67D6"/>
<stop offset="0.52" stop-color="#6A63CA"/>
<stop offset="0.53" stop-color="#6A63C8"/>
<stop offset="0.58" stop-color="#6B64C9"/>
<stop offset="0.61" stop-color="#726BCE"/>
<stop offset="0.62" stop-color="#7D77D6"/>
<stop offset="0.63" stop-color="#8E88E2"/>
<stop offset="0.64" stop-color="#948EE7"/>
<stop offset="0.69" stop-color="#928CE6"/>
<stop offset="0.71" stop-color="#8B85E4"/>
<stop offset="0.72" stop-color="#7E78E1"/>
<stop offset="0.9" stop-color="#645EB1"/>
<stop offset="1" stop-color="#5F5A9C"/>
</linearGradient>
<linearGradient id="paint15_linear_20_1250" x1="295.408" y1="130.029" x2="287.82" y2="130.729" gradientUnits="userSpaceOnUse">
<stop stop-color="#7F474B"/>
<stop offset="0.47" stop-color="#FF5459"/>
<stop offset="1" stop-color="#FF9A9A"/>
</linearGradient>
<linearGradient id="paint16_linear_20_1250" x1="294.961" y1="125.863" x2="286.431" y2="129.172" gradientUnits="userSpaceOnUse">
<stop stop-color="#FF97A1"/>
<stop offset="0.09" stop-color="#FF7E8E"/>
<stop offset="0.18" stop-color="#FA4763"/>
<stop offset="0.25" stop-color="#F84762"/>
<stop offset="0.27" stop-color="#F14760"/>
<stop offset="0.29" stop-color="#E5475D"/>
<stop offset="0.3" stop-color="#D64B5C"/>
<stop offset="0.31" stop-color="#E5616E"/>
<stop offset="0.33" stop-color="#F0727C"/>
<stop offset="0.34" stop-color="#F97E86"/>
<stop offset="0.36" stop-color="#FD858C"/>
<stop offset="0.43" stop-color="#FF878E"/>
<stop offset="0.48" stop-color="#FF858C"/>
<stop offset="0.5" stop-color="#FF7E87"/>
<stop offset="0.51" stop-color="#FF727E"/>
<stop offset="0.53" stop-color="#FF6071"/>
<stop offset="0.58" stop-color="#FF6172"/>
<stop offset="0.6" stop-color="#FF6879"/>
<stop offset="0.61" stop-color="#FF7484"/>
<stop offset="0.62" stop-color="#FF8594"/>
<stop offset="0.63" stop-color="#FFB5C2"/>
<stop offset="0.64" stop-color="#FFB8C5"/>
<stop offset="0.68" stop-color="#FFB6C3"/>
<stop offset="0.7" stop-color="#FFB0BC"/>
<stop offset="0.71" stop-color="#FFA5B0"/>
<stop offset="0.72" stop-color="#FF97A1"/>
<stop offset="0.9" stop-color="#EA475C"/>
<stop offset="1" stop-color="#AA4754"/>
</linearGradient>
<linearGradient id="paint17_linear_20_1250" x1="296.534" y1="136.744" x2="288.946" y2="137.444" gradientUnits="userSpaceOnUse">
<stop stop-color="#7F474B"/>
<stop offset="0.47" stop-color="#FF5459"/>
<stop offset="1" stop-color="#FF9A9A"/>
</linearGradient>
<linearGradient id="paint18_linear_20_1250" x1="296.088" y1="132.579" x2="287.558" y2="135.889" gradientUnits="userSpaceOnUse">
<stop stop-color="#FF97A1"/>
<stop offset="0.09" stop-color="#FF7E8E"/>
<stop offset="0.18" stop-color="#FA4763"/>
<stop offset="0.25" stop-color="#F84762"/>
<stop offset="0.27" stop-color="#F14760"/>
<stop offset="0.29" stop-color="#E5475D"/>
<stop offset="0.3" stop-color="#D64B5C"/>
<stop offset="0.31" stop-color="#E5616E"/>
<stop offset="0.33" stop-color="#F0727C"/>
<stop offset="0.34" stop-color="#F97E86"/>
<stop offset="0.36" stop-color="#FD858C"/>
<stop offset="0.43" stop-color="#FF878E"/>
<stop offset="0.48" stop-color="#FF858C"/>
<stop offset="0.5" stop-color="#FF7E87"/>
<stop offset="0.51" stop-color="#FF727E"/>
<stop offset="0.53" stop-color="#FF6071"/>
<stop offset="0.58" stop-color="#FF6172"/>
<stop offset="0.6" stop-color="#FF6879"/>
<stop offset="0.61" stop-color="#FF7484"/>
<stop offset="0.62" stop-color="#FF8594"/>
<stop offset="0.63" stop-color="#FFB5C2"/>
<stop offset="0.64" stop-color="#FFB8C5"/>
<stop offset="0.68" stop-color="#FFB6C3"/>
<stop offset="0.7" stop-color="#FFB0BC"/>
<stop offset="0.71" stop-color="#FFA5B0"/>
<stop offset="0.72" stop-color="#FF97A1"/>
<stop offset="0.9" stop-color="#EA475C"/>
<stop offset="1" stop-color="#AA4754"/>
</linearGradient>
<linearGradient id="paint19_linear_20_1250" x1="296.976" y1="138.703" x2="289.195" y2="141.721" gradientUnits="userSpaceOnUse">
<stop stop-color="#FF97A1"/>
<stop offset="0.09" stop-color="#FF7E8E"/>
<stop offset="0.18" stop-color="#FA4763"/>
<stop offset="0.25" stop-color="#F84762"/>
<stop offset="0.27" stop-color="#F14760"/>
<stop offset="0.29" stop-color="#E5475D"/>
<stop offset="0.3" stop-color="#D64B5C"/>
<stop offset="0.31" stop-color="#E5616E"/>
<stop offset="0.33" stop-color="#F0727C"/>
<stop offset="0.34" stop-color="#F97E86"/>
<stop offset="0.36" stop-color="#FD858C"/>
<stop offset="0.43" stop-color="#FF878E"/>
<stop offset="0.48" stop-color="#FF858C"/>
<stop offset="0.5" stop-color="#FF7E87"/>
<stop offset="0.51" stop-color="#FF727E"/>
<stop offset="0.53" stop-color="#FF6071"/>
<stop offset="0.58" stop-color="#FF6172"/>
<stop offset="0.6" stop-color="#FF6879"/>
<stop offset="0.61" stop-color="#FF7484"/>
<stop offset="0.62" stop-color="#FF8594"/>
<stop offset="0.63" stop-color="#FFB5C2"/>
<stop offset="0.64" stop-color="#FFB8C5"/>
<stop offset="0.68" stop-color="#FFB6C3"/>
<stop offset="0.7" stop-color="#FFB0BC"/>
<stop offset="0.71" stop-color="#FFA5B0"/>
<stop offset="0.72" stop-color="#FF97A1"/>
<stop offset="0.9" stop-color="#EA475C"/>
<stop offset="1" stop-color="#AA4754"/>
</linearGradient>
<linearGradient id="paint20_linear_20_1250" x1="234.868" y1="207.474" x2="239.816" y2="203.828" gradientUnits="userSpaceOnUse">
<stop stop-color="#7F474D"/>
<stop offset="0.47" stop-color="#FF545E"/>
<stop offset="1" stop-color="#FF9A9E"/>
</linearGradient>
<linearGradient id="paint21_linear_20_1250" x1="236.908" y1="210.16" x2="241.418" y2="204.316" gradientUnits="userSpaceOnUse">
<stop stop-color="#FF97A5"/>
<stop offset="0.09" stop-color="#FF7E91"/>
<stop offset="0.18" stop-color="#FA4768"/>
<stop offset="0.25" stop-color="#F84767"/>
<stop offset="0.27" stop-color="#F14765"/>
<stop offset="0.29" stop-color="#E54762"/>
<stop offset="0.3" stop-color="#D64B61"/>
<stop offset="0.31" stop-color="#E56173"/>
<stop offset="0.33" stop-color="#F07281"/>
<stop offset="0.34" stop-color="#F97E8B"/>
<stop offset="0.36" stop-color="#FD8591"/>
<stop offset="0.43" stop-color="#FF8793"/>
<stop offset="0.48" stop-color="#FF8591"/>
<stop offset="0.5" stop-color="#FF7E8C"/>
<stop offset="0.51" stop-color="#FF7283"/>
<stop offset="0.53" stop-color="#FF6076"/>
<stop offset="0.58" stop-color="#FF6177"/>
<stop offset="0.6" stop-color="#FF687E"/>
<stop offset="0.61" stop-color="#FF7489"/>
<stop offset="0.62" stop-color="#FF8598"/>
<stop offset="0.63" stop-color="#FFB5C5"/>
<stop offset="0.64" stop-color="#FFB8C8"/>
<stop offset="0.68" stop-color="#FFB6C6"/>
<stop offset="0.7" stop-color="#FFB0BF"/>
<stop offset="0.71" stop-color="#FFA5B3"/>
<stop offset="0.72" stop-color="#FF97A3"/>
<stop offset="0.9" stop-color="#EA4760"/>
<stop offset="1" stop-color="#AA4758"/>
</linearGradient>
<linearGradient id="paint22_linear_20_1250" x1="231.295" y1="203.313" x2="236.243" y2="199.667" gradientUnits="userSpaceOnUse">
<stop stop-color="#7F474D"/>
<stop offset="0.47" stop-color="#FF545E"/>
<stop offset="1" stop-color="#FF9A9E"/>
</linearGradient>
<linearGradient id="paint23_linear_20_1250" x1="233.336" y1="205.999" x2="237.845" y2="200.155" gradientUnits="userSpaceOnUse">
<stop stop-color="#FF97A5"/>
<stop offset="0.09" stop-color="#FF7E91"/>
<stop offset="0.18" stop-color="#FA4768"/>
<stop offset="0.25" stop-color="#F84767"/>
<stop offset="0.27" stop-color="#F14765"/>
<stop offset="0.29" stop-color="#E54762"/>
<stop offset="0.3" stop-color="#D64B61"/>
<stop offset="0.31" stop-color="#E56173"/>
<stop offset="0.33" stop-color="#F07281"/>
<stop offset="0.34" stop-color="#F97E8B"/>
<stop offset="0.36" stop-color="#FD8591"/>
<stop offset="0.43" stop-color="#FF8793"/>
<stop offset="0.48" stop-color="#FF8591"/>
<stop offset="0.5" stop-color="#FF7E8C"/>
<stop offset="0.51" stop-color="#FF7283"/>
<stop offset="0.53" stop-color="#FF6076"/>
<stop offset="0.58" stop-color="#FF6177"/>
<stop offset="0.6" stop-color="#FF687E"/>
<stop offset="0.61" stop-color="#FF7489"/>
<stop offset="0.62" stop-color="#FF8598"/>
<stop offset="0.63" stop-color="#FFB5C5"/>
<stop offset="0.64" stop-color="#FFB8C8"/>
<stop offset="0.68" stop-color="#FFB6C6"/>
<stop offset="0.7" stop-color="#FFB0BF"/>
<stop offset="0.71" stop-color="#FFA5B3"/>
<stop offset="0.72" stop-color="#FF97A3"/>
<stop offset="0.9" stop-color="#EA4760"/>
<stop offset="1" stop-color="#AA4758"/>
</linearGradient>
<linearGradient id="paint24_linear_20_1250" x1="230.175" y1="202.146" x2="234.288" y2="196.816" gradientUnits="userSpaceOnUse">
<stop stop-color="#FF97A5"/>
<stop offset="0.09" stop-color="#FF7E91"/>
<stop offset="0.18" stop-color="#FA4768"/>
<stop offset="0.25" stop-color="#F84767"/>
<stop offset="0.27" stop-color="#F14765"/>
<stop offset="0.29" stop-color="#E54762"/>
<stop offset="0.3" stop-color="#D64B61"/>
<stop offset="0.31" stop-color="#E56173"/>
<stop offset="0.33" stop-color="#F07281"/>
<stop offset="0.34" stop-color="#F97E8B"/>
<stop offset="0.36" stop-color="#FD8591"/>
<stop offset="0.43" stop-color="#FF8793"/>
<stop offset="0.48" stop-color="#FF8591"/>
<stop offset="0.5" stop-color="#FF7E8C"/>
<stop offset="0.51" stop-color="#FF7283"/>
<stop offset="0.53" stop-color="#FF6076"/>
<stop offset="0.58" stop-color="#FF6177"/>
<stop offset="0.6" stop-color="#FF687E"/>
<stop offset="0.61" stop-color="#FF7489"/>
<stop offset="0.62" stop-color="#FF8598"/>
<stop offset="0.63" stop-color="#FFB5C5"/>
<stop offset="0.64" stop-color="#FFB8C8"/>
<stop offset="0.68" stop-color="#FFB6C6"/>
<stop offset="0.7" stop-color="#FFB0BF"/>
<stop offset="0.71" stop-color="#FFA5B3"/>
<stop offset="0.72" stop-color="#FF97A3"/>
<stop offset="0.9" stop-color="#EA4760"/>
<stop offset="1" stop-color="#AA4758"/>
</linearGradient>
</defs>
</svg>
